<svg xmlns="http://www.w3.org/2000/svg" viewBox="0 0 512 512">
	<path
			d="M256 492c-63.04 0-122.3-24.55-166.88-69.12C44.55 378.3 20 319.04 20 256c0-63.04 24.55-122.3 69.12-166.88C133.7 44.55 192.96 20 256 20c63.04 0 122.3 24.55 166.88 69.12C467.45 133.7 492 192.96 492 256c0 63.04-24.55 122.3-69.12 166.88C378.3 467.45 319.04 492 256 492z"
			style="fill:#d3541e"/>
	<path
			d="M256 40c29.18 0 57.46 5.71 84.06 16.96 25.72 10.88 48.82 26.46 68.67 46.31s35.43 42.95 46.31 68.67C466.29 198.54 472 226.82 472 256s-5.71 57.46-16.96 84.06c-10.88 25.72-26.46 48.82-46.31 68.67s-42.95 35.43-68.67 46.31C313.46 466.29 285.18 472 256 472s-57.46-5.71-84.06-16.96c-25.72-10.88-48.82-26.46-68.67-46.31s-35.43-42.95-46.31-68.67C45.71 313.46 40 285.18 40 256s5.71-57.46 16.96-84.06c10.88-25.72 26.46-48.82 46.31-68.67s42.95-35.43 68.67-46.31C198.54 45.71 226.82 40 256 40m0-40C114.62 0 0 114.62 0 256s114.62 256 256 256 256-114.62 256-256S397.38 0 256 0z"
			style="fill:#f70"/>
	<path
			d="M333.27 276c-8.89 34.5-40.26 60-77.58 60-44.24 0-80.11-35.82-80.11-80s35.86-80 80.11-80c37.33 0 68.69 25.5 77.58 60h66.23c-9.76-70.62-70.42-125-143.81-125-80.19 0-145.19 64.92-145.19 145s65 145 145.19 145c73.39 0 134.05-54.38 143.81-125h-66.23z"
			style="fill:#fff"/>
</svg>
