<svg xmlns="http://www.w3.org/2000/svg" viewBox="0 0 512 512">
	<style>.st0{fill:#0070bd}.st1{fill:#fff}</style>
	<path
		d="M89 181H23l.38 61.09L57 242 47 389h40l-1 47h81v-47h83.43V234H115l34-109 101.43-.75V83.83H122L89 181zm90 116v39H96v-39h83zm298.87-116h-66l-33-97.17H250.43v40.42l101.44.75 34 109H250.43v155h83.43v47h81l-1-47h40l-10-147 33.62.09.39-61.09zm-73 155h-83v-39h83v39z"
		class="st0"/>
	<path d="m149 125-34 109h270.87l-34-109H149" class="st1"/>
	<path d="m386.56 367.13 26.39-22.55 76.83 89.93-26.39 22.55-76.83-89.93z" class="st0"/>
	<circle cx="343.5" cy="292.5" r="104.5" class="st0"/>
	<path d="M96 297v39h83v-39H96" class="st1"/>
	<circle cx="343.5" cy="292.5" r="69.5" class="st1"/>
</svg>
