<svg xmlns="http://www.w3.org/2000/svg" viewBox="0 0 512 512">
	<path
		d="M455.61 174.58c-4.98-4.99-9.98-9.49-15.17-13.58-24.85-19.59-54.24-29.14-108.57-30.34-19.32-16.64-45.11-33.16-92.74-33.9H76.87s0 146.43.01 175.27c-18.78 5.03-54.84 31.03-54.84 68.53v100.29h207.05c16.58 0 60.54.66 102.33-30.87 60.65-.95 98.13-19.68 124.81-48.53 44.75-45.41 45.51-142.92-.62-186.87z"
		style="fill:#222;stroke:#73d1ff;stroke-width:0;stroke-linecap:round;stroke-linejoin:round"/>
	<path
		d="M405.4 201.34c-18.67-13.62-40.43-19.51-66.92-19.51h-6.13c23.6 46.4 24.74 121.54.04 171.35h9.64c44.66 0 60.19-12.79 75.14-31.07 23.65-30.22 26.07-92.98-11.77-120.77zm-121.91-11.88c-11.55-15.14-29.58-27.41-67.39-28.2h-81.7s0 139.18.01 159.08c-51.8 2.88-59.03 11.56-59.03 33.16v22.39h145.34c26.72 0 47.98-8.62 61.67-28.85 17.3-21.62 35.02-109.94 1.1-157.58z"
		style="fill:#fff;stroke:#73d1ff;stroke-width:0;stroke-linecap:round;stroke-linejoin:round"/>
</svg>
