<svg xmlns="http://www.w3.org/2000/svg" viewBox="0 0 512 512">
	<linearGradient id="a" x1="123.433" x2="358.87" y1="452.963" y2="136.127" gradientTransform="matrix(1 0 0 -1 0 512.11)" gradientUnits="userSpaceOnUse">
		<stop offset="0" style="stop-color:#49c84c"/>
		<stop offset="1" style="stop-color:#0ca236"/>
	</linearGradient>
	<path
		d="M486.86 192.16c0-102.83-83.39-186.14-186.14-186.14h-89.44c-102.82 0-186.14 83.31-186.14 186.14v89.44c0 102.82 92.95 203.5 186.14 186.14l77.58-15.29v34.65c0 11.39 11.63 26.44 35.76 14.5 62.05-30.74 162.24-107.68 162.24-237.67v-71.77z"
		style="fill:url(#a)"/>
	<path
		d="M272.29 359.42c-3.42 0-6.85-.16-10.27-.48-35.84-3.35-65.63-22.22-83.87-53.04-13.78-23.34-19.35-51.61-16.33-79.25-28.12-16.09-53.28-38.47-74.07-66.27l30.27-22.62c15.69 20.95 33.69 37.99 53.76 50.97 0-.16.16-.4.24-.56 16.81-38.71 49.38-66.35 87.13-73.91 30.35-6.05 59.26 1.59 79.41 20.95 21.11 20.31 26.92 50.1 14.74 75.82-15.77 33.29-55.91 49.54-107.52 43.49-16.17-1.91-31.86-5.58-47.07-10.91.32 15.29 4.3 30.27 11.87 43.09 11.87 20.15 31.38 32.42 54.88 34.65 33.77 3.19 64.75-18.16 75.35-52.01l36 11.31c-14.97 47.55-57.11 78.77-104.66 78.77h.14zm-66.75-153.48a183.33 183.33 0 0 0 44.68 11.07c34.73 4.06 60.45-4.22 68.97-22.14 5.1-10.83 2.47-23.58-6.77-32.42-11.07-10.67-27.8-14.73-45.8-11.15-25.65 5.1-48.03 24.53-59.9 51.93-.4.88-.8 1.83-1.12 2.79l-.06-.08z"
		style="fill:#fff"/>
</svg>
