<svg xmlns="http://www.w3.org/2000/svg" viewBox="0 0 512 512">
	<linearGradient id="a" x1="53.686" x2="472.079" y1="313.119" y2="184.205" gradientUnits="userSpaceOnUse">
		<stop offset="0" style="stop-color:#fe2f03"/>
		<stop offset=".776" style="stop-color:#ff9b00"/>
	</linearGradient>
	<linearGradient id="b" x1="53.687" x2="475.094" y1="314.341" y2="176.582" gradientUnits="userSpaceOnUse">
		<stop offset="0" style="stop-color:#fe2f03"/>
		<stop offset=".615" style="stop-color:#ff9b00"/>
	</linearGradient>
	<path
		d="M438.57 227.13c-9.61 7.24-30.28 18.14-40.57 22.87 6-18 8-45 3-62-21.63-73.54-141-94-224.17-59.84-96.8 39.76-155.36 125.04-128.3 196.85C69.95 381.82 138.07 411.42 214 403c58.26-1.36 123.72-28.64 178.49-79.5 45.36-42.12 75.12-92.9 87.23-142.05-9.91 16.83-23.75 32.57-41.15 45.68zM292.06 352.36c-68.74 53.88-157.05 55.98-197.25 4.7-40.2-51.29-17.06-136.54 51.69-190.42 68.74-53.88 157.05-55.98 197.25-4.7 40.19 51.29 17.05 136.54-51.69 190.42z"
		style="fill:url(#a)"/>
	<ellipse cx="219.27" cy="259.5" rx="158.14" ry="117.98" style="fill:#fff" transform="rotate(-38.088 219.27 259.495)"/>
	<path
		d="M158.55 189.16c-52.96 45.92-68.4 114.86-34.49 153.98 33.92 39.12 104.35 33.6 157.31-12.32 52.96-45.92 68.4-114.86 34.49-153.98-33.92-39.12-104.35-33.6-157.31 12.32zM111 261l167-107c-12.06 26.34-42.25 56.09-82.85 78.56C165.72 248.85 136 258.43 111 261zm57 106c10.72-26.92 41.07-58.01 82.5-81.24 27.31-15.32 54.86-24.66 78.5-27.76L168 367z"
		style="fill:url(#b)"/>
</svg>
