<svg xmlns="http://www.w3.org/2000/svg" viewBox="0 0 512 512">
	<style>.st0{fill:#002368}</style>
	<path d="m34 343 220.89 123.55L329 508l-1.13-81.36" class="st0"/>
	<path d="m34.52 129.99 99.01 58.07L255.99 6.01z" style="fill:#206fe2"/>
	<path d="m34.02 336.01 99.51-147.95-99.01-58.07-.02.01z" style="fill:#0047af"/>
	<path d="M133.53 188.06 256 259.88V6.02l-.01-.01z" style="fill:#0855c4"/>
	<path d="M34.02 336.01 34 343l222 123.95V259.88l-122.47-71.82z" style="fill:#00349b"/>
	<path d="M483.49 129.99 256 6v.02l123.31 183.47z" style="fill:#206fe3"/>
	<path d="M379.31 189.49 256.02 259.9l.34.19-.34-.19h-.01.01l-.02-.02v207.07L483 343l.5-213-.01-.01-104.18 59.5.19.01" class="st0"/>
	<path d="M379.31 189.49 256 6.02v253.86l.02.02z" style="fill:#00349c"/>
	<path d="M329 259.88v123.83L359 368v-34.32L392 316l23 22 36-23-24-29s27.75-25 22.38-53C444 205 415 212 415 212l-86 47.88z" style="fill:#fff"/>
	<path d="M359 275v28.34L416 268s4.62-3 2.81-12-9.81-10-11.81-9-48 28-48 28z" class="st0"/>
</svg>
