<svg xmlns="http://www.w3.org/2000/svg" viewBox="0 0 512 512">
	<linearGradient id="a" x1="256" x2="256" y1="3.321" y2="515.321" gradientUnits="userSpaceOnUse">
		<stop offset="0" style="stop-color:#6598ca"/>
		<stop offset="1" style="stop-color:#3b73ac"/>
	</linearGradient>
	<path d="M0 0h512v512H0z" style="fill:url(#a)"/>
	<path
		d="M369 278.74c-.86 16.51 8.43 45.36-13.79 48.89-49.91-7.12-167.6 44.79-177.88-26.53 9.88-58.09-88.68 50.53-124.84 32.78-9.86-2.85-10.13-22.42.6-22.25 21.11 4.4 84.56-32.96 93.94-49.51-30.51-22.56-78.15-8.56-109.32-27.64-21.28-25.62 79.28-93.4 99.22-72.77 4.12 7.66-4.66 9.91-9.11 12.95-8.98 11.35-85.72 41.38-48.26 50.45 30.62 12.61 65.37-4.54 93.71 17.1 37.86 18.31 26.29-92.51 60.69-83.3 48.78 31.95-93.36 158.3 18.59 145.41 25.62-2.09 51.05-6.81 76.96-4.87 9.32.7 8.55-6.69 8.62-12.6 4.66-29.13-10.45-73.5 11.5-94.61 27.97 5.58 4.3 114.98 69.04-2.24 8.89-44.38-81.53 3.71-104.06-.9-12.7 0-14.71-19.47-1.19-19.97 84.08-25.41 193.83-36 93.7 74.96-34.26 21.93 78.08 87.96 70.1 114.1-31.18 16.33-80.21-62.68-108.22-79.45z"
		style="fill:#f6f8f9"/>
</svg>
