<svg xmlns="http://www.w3.org/2000/svg" viewBox="0 0 512 512">
	<style>.st0{fill:#fc8f00}.st1{fill:#036eca}</style>
	<path
		d="M409.8 437.66c-.34 9.67 4.56 45.73-16.38 46.76-13.37 1.81-19.52-9.16-21.55-19.99-3.89-20.31.17-41.6 1-61.94 2.96-48.3-58.7-52.77-52.78-1.14.24 14.86.61 29.8-.65 44.58 1.28 33.47-40.89 31.71-39.87-.77-.28-15.74.19-31.72 2.65-47.24 4.61-29.08-1.64-38.4-30.31-40.69-60.72 7.4-62.65-50.18-3.98-40.14 64.6 15.05 129.34 14.4 194.53 6.36 17.86-2.81 49 5.25 48.45 27.21-15.74 41.9-96.56-32.05-81.11 87zM447.14 211.45c-5.92-75.23-116.32-113-164.1-48.9-25.77 30.98-43.11 66.55-25.65 106.14 43.34 74.6 201.67 25.63 189.75-57.24zm-96.37 55.94c-65.45-3.78-59.51-96.33.28-100.64 67.21 3.52 71.08 98.64-.28 100.64z"
		class="st0"/>
	<path
		d="M30.51 285c16.53-7.62 31.93-17.64 51.2-18.5 27.14-1.22 48.75-8.56 61.34-38.1 8.19-19.23 26.85-35.86 36.03 3.93 6.52 28.25 33.89 27.8 55.52 32.4 14.77 3.14 30.52 1.8 45.84 2.25 30.6-1.27 28.55 29.08 2.76 33.43-14.61 3.36-31.04 5.24-45.42 2.03-53.35-11.91-106.01-10.88-159.31.12-14.76 3.37-49.74 6.21-47.96-17.56z"
		class="st1"/>
	<path
		d="M173.49 28.55c-96.68-3.7-158.17 179.63-15.25 172.68 135.48-.46 143.56-160.76 15.25-172.68zm-.32 133.81c-63.3 4.76-64.52-94.98-.23-93.46 64.83-.97 65.63 96.51.23 93.46z"
		class="st1"/>
</svg>
